<svg xmlns="http://www.w3.org/2000/svg" width="15.439" height="12.352" viewBox="0 0 15.439 12.352">
  <path id="mail_24dp_E3E3E3_FILL0_wght400_GRAD0_opsz24" d="M81.544-787.648a1.487,1.487,0,0,1-1.09-.454,1.487,1.487,0,0,1-.454-1.09v-9.264a1.487,1.487,0,0,1,.454-1.09,1.487,1.487,0,0,1,1.09-.454H93.9a1.487,1.487,0,0,1,1.09.454,1.487,1.487,0,0,1,.454,1.09v9.264a1.487,1.487,0,0,1-.454,1.09,1.487,1.487,0,0,1-1.09.454Zm6.176-5.4-6.176-3.86v7.72H93.9v-7.72Zm0-1.544,6.176-3.86H81.544Zm-6.176-2.316v0Z" transform="translate(-80 800)" fill="#d1d1d1"/>
</svg>
