<?xml version="1.0" encoding="UTF-8"?><svg id="b" xmlns="http://www.w3.org/2000/svg" viewBox="0 0 20.81 15.09"><defs><style>.e{fill:#f02680;}</style></defs><g id="c"><g id="d"><path class="e" d="M10.56,3c-1.98.65-2.31,1.74-2.69,1.42s.13-1.29-.84-2.71c0,0-2.56,5.66-2.65,5.94,1.48-.24,1.45-.28,1.75-.12.48.25-.14,1.98.53,3.36l3.88-7.89h0ZM7.2,5.73c1.04-1.85.38-4.2-1.47-5.24C3.88-.55,1.53.11.49,1.96-.55,3.81.11,6.16,1.96,7.2c1.84,1.04,4.18.4,5.23-1.45,0,0,0-.01.01-.02M17.39,7.58c.3-.31.69-.52,1.12-.59-1.04-3.25-4.51-5.06-7.77-4.05l-.17.05h0c-3.19,1.08-4.93,4.5-3.94,7.72.02.06.04.11.06.17,1.12,3.25,4.66,4.99,7.92,3.87,1.81-.62,3.24-2.05,3.87-3.86-1.08-.2-1.79-1.23-1.59-2.31.07-.38.25-.73.51-1M20.19,7.51c-.45-.43-1.08-.62-1.69-.52,0,.02.01.03.02.05.39,1.26.37,2.61-.06,3.85,1.08.2,2.11-.51,2.32-1.58.12-.66-.09-1.34-.58-1.8"/></g></g></svg>