<svg id="logo02" xmlns="http://www.w3.org/2000/svg" width="20.004" height="14.491" viewBox="0 0 20.004 14.491">
  <path id="パス_2" data-name="パス 2" d="M62.731,98.135c-1.905.628-2.218,1.672-2.582,1.367s.123-1.24-.8-2.6c0,0-2.457,5.438-2.544,5.706,1.426-.227,1.392-.268,1.683-.115.463.242-.131,1.9.513,3.224l3.732-7.579Z" transform="translate(-52.578 -95.265)" fill="#fff"/>
  <path id="パス_3" data-name="パス 3" d="M20.571,85.7a3.7,3.7,0,1,0-5.034,1.411A3.685,3.685,0,0,0,20.571,85.7Z" transform="translate(-13.649 -80.204)" fill="#fff"/>
  <path id="パス_4" data-name="パス 4" d="M86.567,110.966a1.9,1.9,0,0,1,1.073-.568,5.985,5.985,0,0,0-7.47-3.889l-.159.052h0a5.967,5.967,0,0,0-3.785,7.417c.017.055.035.108.053.161a5.987,5.987,0,0,0,11.322.01,1.9,1.9,0,0,1-1.034-3.183Z" transform="translate(-69.857 -103.692)" fill="#fff"/>
  <path id="パス_5" data-name="パス 5" d="M196.58,148.973a1.911,1.911,0,0,0-1.626-.5c.006.016.011.031.016.048a5.93,5.93,0,0,1-.055,3.7,1.905,1.905,0,0,0,1.665-3.254Z" transform="translate(-177.171 -141.77)" fill="#fff"/>
</svg>
