<svg id="グループ_5" data-name="グループ 5" xmlns="http://www.w3.org/2000/svg" xmlns:xlink="http://www.w3.org/1999/xlink" width="199.357" height="31.67" viewBox="0 0 199.357 31.67">
  <defs>
    <clipPath id="clip-path">
      <rect id="長方形_6" data-name="長方形 6" width="199.357" height="31.67" fill="none"/>
    </clipPath>
  </defs>
  <g id="グループ_4" data-name="グループ 4" clip-path="url(#clip-path)">
    <path id="パス_1" data-name="パス 1" d="M39.034,9.758a11.5,11.5,0,0,0-3.34-6.441A11.35,11.35,0,0,0,29.14.171a15.871,15.871,0,0,0-8,1.064c-.505.2-.993.435-1.482.674-.514-.253-1.029-.5-1.562-.71a15.872,15.872,0,0,0-8-1.064A11.349,11.349,0,0,0,3.541,3.28,11.5,11.5,0,0,0,.2,9.721a15.273,15.273,0,0,0,.858,7.969,21.648,21.648,0,0,0,4.955,7.658A21.07,21.07,0,0,0,13.508,30.4a19.461,19.461,0,0,0,2.056.672,12.2,12.2,0,0,0,2.156.485,16.381,16.381,0,0,0,8.008-1.12,21.07,21.07,0,0,0,7.494-5.055,21.649,21.649,0,0,0,4.955-7.658,15.272,15.272,0,0,0,.858-7.969M2.551,17.484a14.585,14.585,0,0,1-.886-7.254,9.92,9.92,0,0,1,8.822-8.6,14.87,14.87,0,0,1,7.255,1.042c.1.039.194.093.294.134a22.189,22.189,0,0,0-4.39,3.489,21.089,21.089,0,0,0-4.866,7.618,16.25,16.25,0,0,0-.9,8.057,11.5,11.5,0,0,0,1.81,4.7,19.553,19.553,0,0,1-2.687-2.281,19.606,19.606,0,0,1-4.454-6.9m27.289,3.984a9.864,9.864,0,0,1-2.888,5.814A9.724,9.724,0,0,1,20.9,30a14.1,14.1,0,0,1-3.278-.087c-.3-.048-.612-.085-.9-.156-.059-.012-.118-.028-.177-.04a9.43,9.43,0,0,1-4.261-2.4A9.865,9.865,0,0,1,9.4,21.5a13.891,13.891,0,0,1,.23-4.983H29.616a13.877,13.877,0,0,1,.223,4.947M9.983,15.186c.1-.331.183-.658.305-.992a19.347,19.347,0,0,1,4.4-6.888A19.906,19.906,0,0,1,19.648,3.55a19.912,19.912,0,0,1,4.9,3.719,19.347,19.347,0,0,1,4.4,6.888c.127.346.213.686.317,1.029ZM32.23,24.418a19.532,19.532,0,0,1-2.771,2.344,11.482,11.482,0,0,0,1.893-4.833,15.405,15.405,0,0,0-.177-5.408h5.819c-.1.333-.186.663-.31,1a19.6,19.6,0,0,1-4.454,6.9m5.106-9.151v-.082H30.85c-.123-.437-.234-.872-.393-1.314a21.087,21.087,0,0,0-4.866-7.618A22.227,22.227,0,0,0,21.27,2.807c.076-.031.148-.073.225-.1a14.87,14.87,0,0,1,7.254-1.042,9.92,9.92,0,0,1,8.822,8.6,13.774,13.774,0,0,1-.235,5" transform="translate(0 0)" fill="#fff"/>
    <path id="パス_2" data-name="パス 2" d="M407.754,67.66a9.2,9.2,0,0,1,3.274-3.265,8.875,8.875,0,0,1,8.969,0,9.257,9.257,0,0,1,3.3,3.265,8.465,8.465,0,0,1,1.229,4.433,8.573,8.573,0,0,1-1.217,4.458A9.1,9.1,0,0,1,411.016,79.8a8.823,8.823,0,0,1-3.273-3.217,8.66,8.66,0,0,1-1.2-4.494,8.528,8.528,0,0,1,1.216-4.433m2.093,7.759a6.54,6.54,0,0,0,2.4,2.409,6.454,6.454,0,0,0,3.322.892,6.424,6.424,0,0,0,5.659-3.29,6.859,6.859,0,0,0-.012-6.687,6.509,6.509,0,0,0-2.385-2.432,6.391,6.391,0,0,0-3.31-.892,6.323,6.323,0,0,0-3.31.9,6.512,6.512,0,0,0-2.373,2.446,6.731,6.731,0,0,0-.865,3.349,6.494,6.494,0,0,0,.876,3.3" transform="translate(-358.296 -55.682)" fill="#fff"/>
    <path id="パス_3" data-name="パス 3" d="M587.205,125.129a2.84,2.84,0,0,1,.949,2.156v7.373h-2.288v-6.6a2.011,2.011,0,0,0-.511-1.325,1.912,1.912,0,0,0-1.387-.506,2.753,2.753,0,0,0-2.215,1.061,4.094,4.094,0,0,0-.876,2.7v4.675h-2.264v-9.975h2.044l.146,1.926a3.927,3.927,0,0,1,1.607-1.7,4.842,4.842,0,0,1,2.458-.614,3.364,3.364,0,0,1,2.336.831" transform="translate(-509.953 -109.548)" fill="#fff"/>
    <path id="パス_4" data-name="パス 4" d="M686.555,131.919l1.047,1.663a7.088,7.088,0,0,1-1.741.832,5.925,5.925,0,0,1-1.813.3,6.021,6.021,0,0,1-2.933-.687,4.855,4.855,0,0,1-1.935-1.891,5.438,5.438,0,0,1-.681-2.724,5.066,5.066,0,0,1,.742-2.687,5.361,5.361,0,0,1,2.032-1.926,5.745,5.745,0,0,1,2.824-.712,4.871,4.871,0,0,1,3.3,1.145,5.862,5.862,0,0,1,1.813,3.192l-7.983,2.772a3.155,3.155,0,0,0,1.181,1.168,3.364,3.364,0,0,0,1.692.422,4.13,4.13,0,0,0,2.458-.869m-4.916-5.083a3.454,3.454,0,0,0-.9,2.457,4.631,4.631,0,0,0,.025.554l5.865-2.145a3.326,3.326,0,0,0-1.034-1.325,2.685,2.685,0,0,0-1.667-.5,3,3,0,0,0-2.288.963" transform="translate(-597.985 -109.364)" fill="#fff"/>
    <path id="パス_5" data-name="パス 5" d="M810.74,64.8v2.241h-9.078v5.3h8.1v2.241h-8.1v5.373h9.419v2.265H799.3V64.8Z" transform="translate(-704.452 -57.107)" fill="#fff"/>
    <path id="パス_6" data-name="パス 6" d="M925.446,87.092a1.405,1.405,0,0,1,.949-.361,1.362,1.362,0,0,1,.937.361,1.191,1.191,0,0,1,0,1.784,1.362,1.362,0,0,1-.937.361,1.405,1.405,0,0,1-.949-.361,1.168,1.168,0,0,1,0-1.784m2.02,14.457H925.2V91.574h2.264Z" transform="translate(-815.263 -76.439)" fill="#fff"/>
    <path id="パス_7" data-name="パス 7" d="M982.9,124.5v10.047a4.526,4.526,0,0,1-.706,2.482,4.926,4.926,0,0,1-2.008,1.757,6.734,6.734,0,0,1-3.055.652,6.314,6.314,0,0,1-2.641-.506,9.17,9.17,0,0,1-2.226-1.494L973.6,135.9a6.7,6.7,0,0,0,1.655,1.168,4.143,4.143,0,0,0,1.825.4,3.827,3.827,0,0,0,2.592-.8,2.769,2.769,0,0,0,.937-2.145l.024-1.88a4.017,4.017,0,0,1-1.642,1.506,5.313,5.313,0,0,1-2.5.568,4.878,4.878,0,0,1-2.555-.7,5.184,5.184,0,0,1-1.862-1.9,5.362,5.362,0,0,1,1.959-7.326,5.156,5.156,0,0,1,2.6-.7,5.619,5.619,0,0,1,2.385.506,3.851,3.851,0,0,1,1.631,1.3l.171-1.4Zm-3.5,7.661a3.2,3.2,0,0,0,1.241-1.832v-1.976a3.282,3.282,0,0,0-1.29-1.746,3.732,3.732,0,0,0-2.19-.664,3.436,3.436,0,0,0-2.483.965,3.268,3.268,0,0,0-1,2.457,3.451,3.451,0,0,0,1.729,3.023,3.4,3.4,0,0,0,1.752.47,3.668,3.668,0,0,0,2.239-.7" transform="translate(-856.115 -109.364)" fill="#fff"/>
    <path id="パス_8" data-name="パス 8" d="M1105.707,63.384a2.839,2.839,0,0,1,.949,2.156v7.373h-2.287v-6.6a2.011,2.011,0,0,0-.511-1.325,1.913,1.913,0,0,0-1.387-.506,2.749,2.749,0,0,0-1.583.483,3.235,3.235,0,0,0-1.107,1.349,4.532,4.532,0,0,0-.4,1.928v4.675h-2.264V54.24h2.215V64.746a4.187,4.187,0,0,1,1.618-1.59,4.8,4.8,0,0,1,2.422-.6,3.364,3.364,0,0,1,2.336.831" transform="translate(-966.927 -47.804)" fill="#fff"/>
    <path id="パス_9" data-name="パス 9" d="M1205.232,90.58v4.41h2.75v1.784h-2.75v8.168h-2.289V96.774h-1.849V94.99h1.849V90.58Z" transform="translate(-1058.567 -79.831)" fill="#fff"/>
    <path id="パス_10" data-name="パス 10" d="M1280.7,127.547l-6.5,14.77h-2.24l2.313-5.133-4.673-9.637h2.556l3.262,7.107,3.188-7.107Z" transform="translate(-1118.94 -112.412)" fill="#fff"/>
    <path id="パス_11" data-name="パス 11" d="M1361.99,197.114l-.706,1.686h-1.85l.632-1.686q1.1-2.914,1.266-3.372h2.068Z" transform="translate(-1198.118 -170.752)" fill="#fff"/>
    <path id="パス_12" data-name="パス 12" d="M1414,87.092a1.4,1.4,0,0,1,.949-.361,1.363,1.363,0,0,1,.937.361,1.192,1.192,0,0,1,0,1.784,1.363,1.363,0,0,1-.937.361,1.4,1.4,0,0,1-.949-.361,1.168,1.168,0,0,1,0-1.784m2.02,14.457h-2.264V91.574h2.264Z" transform="translate(-1245.84 -76.439)" fill="#fff"/>
    <path id="パス_13" data-name="パス 13" d="M1473.851,125.129a2.84,2.84,0,0,1,.949,2.156v7.373h-2.288v-6.6a2.012,2.012,0,0,0-.511-1.325,1.913,1.913,0,0,0-1.387-.506,2.752,2.752,0,0,0-2.214,1.061,4.094,4.094,0,0,0-.877,2.7v4.675h-2.264v-9.975h2.045l.146,1.926a3.929,3.929,0,0,1,1.607-1.7,4.843,4.843,0,0,1,2.458-.614,3.365,3.365,0,0,1,2.336.831" transform="translate(-1291.385 -109.548)" fill="#fff"/>
    <path id="パス_14" data-name="パス 14" d="M1576.681,135.47a6.006,6.006,0,0,1-1.911.314,6.148,6.148,0,0,1-2.884-.652,4.711,4.711,0,0,1-1.948-1.842,5.392,5.392,0,0,1-.694-2.76,5.138,5.138,0,0,1,.73-2.735,5.03,5.03,0,0,1,1.947-1.842,5.472,5.472,0,0,1,2.629-.652,5.779,5.779,0,0,1,3.821,1.254l-1.143,1.469a4.881,4.881,0,0,0-1.12-.614,3.633,3.633,0,0,0-1.363-.253,3.124,3.124,0,0,0-1.643.445,3.205,3.205,0,0,0-1.168,1.216,3.483,3.483,0,0,0-.425,1.711,3.323,3.323,0,0,0,.45,1.711,3.377,3.377,0,0,0,1.228,1.229,3.644,3.644,0,0,0,3.943-.265l1.169,1.4a5.081,5.081,0,0,1-1.618.867" transform="translate(-1383.03 -110.433)" fill="#fff"/>
    <path id="パス_15" data-name="パス 15" d="M1658.852,190.266a1.2,1.2,0,0,1,1.765,0,1.227,1.227,0,0,1,.4.915,1.2,1.2,0,0,1-.39.917,1.259,1.259,0,0,1-.876.361,1.285,1.285,0,0,1-.9-.361,1.2,1.2,0,0,1-.39-.917,1.245,1.245,0,0,1,.39-.915" transform="translate(-1461.662 -167.348)" fill="#fff"/>
  </g>
</svg>
