<svg xmlns="http://www.w3.org/2000/svg" width="19" height="19" viewBox="0 0 19 19">
  <g transform="translate(27.1 27.1) rotate(180)">
    <path d="M17.6,27.1a9.5,9.5,0,1,1,9.5-9.5A9.5,9.5,0,0,1,17.6,27.1Zm0-17.967A8.467,8.467,0,1,0,26.067,17.6,8.5,8.5,0,0,0,17.6,9.133Z" fill="#fff"/>
    <path d="M24.246,29.191,18.8,23.746,24.246,18.3l.715.755-4.651,4.69,4.651,4.69-.715.755" transform="translate(-6.447 -6.146)" fill="#fff"/>
    <path d="M20.7,30.6h9.54v1.113H20.7Z" transform="translate(-7.592 -13.556)" fill="#fff"/>
  </g>
</svg>
