<?xml version="1.0" encoding="utf-8"?>
<!-- Generator: Adobe Illustrator 27.7.0, SVG Export Plug-In . SVG Version: 6.00 Build 0)  -->
<svg version="1.1" id="レイヤー_1" xmlns="http://www.w3.org/2000/svg" xmlns:xlink="http://www.w3.org/1999/xlink" x="0px"
	 y="0px" viewBox="0 0 19 19" style="enable-background:new 0 0 19 19;" xml:space="preserve">
<style type="text/css">
	.st0{fill:#FFFFFF;}
</style>
<g transform="translate(27.1 27.1) rotate(180)">
	<path class="st0" d="M8.1,17.6c0-5.2,4.3-9.5,9.5-9.5s9.5,4.3,9.5,9.5s-4.3,9.5-9.5,9.5S8.1,22.8,8.1,17.6z M9.1,17.6L9.1,17.6
		c0,4.7,3.8,8.5,8.5,8.5s8.5-3.8,8.5-8.5s-3.8-8.5-8.5-8.5C12.9,9.2,9.2,12.9,9.1,17.6z"/>
	<path class="st0" d="M17.4,23l-0.7-0.8l4.7-4.7l-4.7-4.7l0.7-0.8l5.4,5.4L17.4,23"/>
	<path class="st0" d="M22.1,18.2h-9.5V17h9.5V18.2z"/>
</g>
</svg>
