<svg xmlns="http://www.w3.org/2000/svg" width="28" height="28" viewBox="0 0 28 28">
  <g id="グループ_49" data-name="グループ 49" transform="translate(-25 -293)">
    <rect id="長方形_118" data-name="長方形 118" width="28" height="28" transform="translate(25 293)" fill="none"/>
    <path id="パス_9" data-name="パス 9" d="M88.935,51.658a7.3,7.3,0,0,1,1.207.226,5.144,5.144,0,0,1,3.921,5.041v6.442l.471.473.393.395H82.842l.393-.395.471-.473V56.925a5.145,5.145,0,0,1,3.921-5.041,8.937,8.937,0,0,1,1.207-.226M88.885,48a1.543,1.543,0,0,0-1.568,1.575v.735a6.806,6.806,0,0,0-5.226,6.615V62.7L80,64.8v1.05H97.769V64.8l-2.09-2.1V56.925a6.806,6.806,0,0,0-5.226-6.615v-.735A1.543,1.543,0,0,0,88.885,48Zm2.09,18.9H86.794a2.091,2.091,0,1,0,4.181,0Z" transform="translate(-50 249)" fill="#434343"/>
  </g>
</svg>
