<svg xmlns="http://www.w3.org/2000/svg" width="28" height="28" viewBox="0 0 28 28">
  <g id="グループ_52" data-name="グループ 52" transform="translate(-21 -837)">
    <path id="パス_19" data-name="パス 19" d="M13.529,11.252a3.357,3.357,0,0,0,.9-2.25,3.4,3.4,0,1,0-6.8,0,3.357,3.357,0,0,0,.9,2.25A5.346,5.346,0,0,0,5.6,15.4a.905.905,0,0,0,1.8.2,3.6,3.6,0,0,1,7.146,0,.9.9,0,0,0,.954.8h.1a.9.9,0,0,0,.792-.99,5.346,5.346,0,0,0-2.862-4.158ZM11,10.6A1.6,1.6,0,1,1,12.6,9,1.6,1.6,0,0,1,11,10.6ZM17.3,2H4.7A2.7,2.7,0,0,0,2,4.7V17.3A2.7,2.7,0,0,0,4.7,20H17.3A2.7,2.7,0,0,0,20,17.3V4.7A2.7,2.7,0,0,0,17.3,2Zm.9,15.3a.9.9,0,0,1-.9.9H4.7a.9.9,0,0,1-.9-.9V4.7a.9.9,0,0,1,.9-.9H17.3a.9.9,0,0,1,.9.9Z" transform="translate(24 840)" fill="#434343"/>
    <rect id="長方形_121" data-name="長方形 121" width="28" height="28" transform="translate(21 837)" fill="none"/>
  </g>
</svg>
