<svg xmlns="http://www.w3.org/2000/svg" width="28" height="28" viewBox="0 0 28 28">
  <g id="グループ_49" data-name="グループ 49" transform="translate(-25 -347)">
    <rect id="長方形_118" data-name="長方形 118" width="28" height="28" transform="translate(25 347)" fill="none"/>
    <path id="パス_10" data-name="パス 10" d="M3.909,1A.909.909,0,0,0,3,1.909V20.091a.909.909,0,1,0,1.818,0V13.727H18.455a.909.909,0,0,0,.71-1.477L15.983,8.273,19.165,4.3a.909.909,0,0,0-.71-1.477H4.818V1.909A.909.909,0,0,0,3.909,1ZM16.563,4.636,14.108,7.7a.909.909,0,0,0,0,1.136l2.455,3.068H4.818V4.636Z" transform="translate(27.703 350)" fill="#434343"/>
  </g>
</svg>
