<svg xmlns="http://www.w3.org/2000/svg" width="28" height="28" viewBox="0 0 28 28">
  <g id="グループ_32" data-name="グループ 32" transform="translate(0.499)">
    <rect id="長方形_108" data-name="長方形 108" width="28" height="28" transform="translate(-0.499)" fill="none"/>
    <path id="パス_20" data-name="パス 20" d="M11.912,14.556a4.1,4.1,0,0,1-.63-6.188A4.406,4.406,0,0,1,14.427,7h.055a4.406,4.406,0,0,1,3.967,2.653A4.115,4.115,0,0,1,17,14.569a4.312,4.312,0,0,1,1.747,3.409v3.631a.89.89,0,0,1-1.421.65.865.865,0,0,1-.291-.552.741.741,0,0,1-.005-.1c0-1.215,0-2.431,0-3.646a2.578,2.578,0,0,0-5.156.018V20.75h2.578a1.118,1.118,0,0,1,.681.335.889.889,0,0,1-.632,1.383H11.017a.734.734,0,0,1-.284-.048.875.875,0,0,1-.57-.715.89.89,0,0,1-.006-.1c0-1.219,0-2.438,0-3.658a4.386,4.386,0,0,1,1.755-3.4Zm8.57.179h.009l.045,0a1.719,1.719,0,0,0-.07-3.436,1.023,1.023,0,0,1-.628-.276.886.886,0,0,1,.551-1.439.587.587,0,0,1,.1,0,3.437,3.437,0,0,1,2.48,5.793,3.357,3.357,0,0,1-.254.241,3.427,3.427,0,0,1,1.189,2.557v3.438a.741.741,0,0,1-.057.309.877.877,0,0,1-.712.547.793.793,0,0,1-.09,0H20.469a.859.859,0,0,1,0-1.719h1.719c0-.866.009-1.733,0-2.6a1.775,1.775,0,0,0-1.685-1.7H20.48a.744.744,0,0,1-.8-.51.89.89,0,0,1,.74-1.208h.058ZM6.207,15.6a3.427,3.427,0,0,1-1.113-1.784,3.507,3.507,0,0,1,1-3.312,3.471,3.471,0,0,1,2.338-.922h.042A.892.892,0,0,1,9.1,10.99c-.308.367-.861.248-1.317.437a1.779,1.779,0,0,0-.933,2.237,1.758,1.758,0,0,0,1.6,1.07h.042a.768.768,0,0,1,.384.144.8.8,0,0,1,.359.374.777.777,0,0,1,.039.5.762.762,0,0,1-.359.565.9.9,0,0,1-.468.139,1.581,1.581,0,0,0-.305.027,1.76,1.76,0,0,0-1.413,1.681V20.75H8.438a.859.859,0,1,1,0,1.719H5.861a.717.717,0,0,1-.266-.042.878.878,0,0,1-.59-.727.784.784,0,0,1,0-.09C5,20.457,5,19.3,5,18.15A3.5,3.5,0,0,1,6.207,15.6Zm8.23-6.877a2.621,2.621,0,0,0-2.556,2.324A2.556,2.556,0,0,0,13.5,13.509a2.67,2.67,0,0,0,3.462-1.737A2.58,2.58,0,0,0,14.5,8.72h-.068Z" transform="translate(-0.703 -0.984)" fill="#434343"/>
  </g>
</svg>
