<?xml version="1.0" encoding="UTF-8"?>
<svg id="_レイヤー_1" data-name="レイヤー_1" xmlns="http://www.w3.org/2000/svg" version="1.1" viewBox="0 0 28 28">
  <!-- Generator: Adobe Illustrator 29.3.1, SVG Export Plug-In . SVG Version: 2.1.0 Build 151)  -->
  <defs>
    <style>
      .st0 {
        fill: none;
      }

      .st1 {
        fill: #434343;
      }
    </style>
  </defs>
  <g id="_グループ_49" data-name="グループ_49">
    <rect id="_長方形_118" data-name="長方形_118" class="st0" width="28" height="28"/>
    <path class="st1" d="M23.5,8.4c0-.2,0-.3-.2-.5l-2.7-2.7c-.3-.3-.7-.3-.9,0l-5.2,5.2s0,0,0,0l-1.7,1.7-4.2,1.7c-.2,0-.3.2-.4.4l-3.6,8.9c0,.2,0,.5.1.7.1.1.3.2.5.2s.2,0,.2,0l8.9-3.6c.2,0,.3-.2.4-.4l1.7-4.2,1.7-1.7s0,0,0,0l5.2-5.2c.1-.1.2-.3.2-.5ZM13.5,19.2l-6.4,2.6,2.7-2.7c.5.3,1.1.2,1.6-.2.5-.5.5-1.3,0-1.8-.5-.5-1.3-.5-1.8,0-.4.4-.5,1.1-.2,1.6l-2.7,2.7,2.6-6.4,3.7-1.5,1.1,1.1,1.1,1.1-1.5,3.7ZM17.6,12.7l-1.8-1.8,4.3-4.3,1.8,1.8-4.3,4.3Z"/>
  </g>
</svg>