<svg xmlns="http://www.w3.org/2000/svg" width="111.825" height="80.368" viewBox="0 0 111.825 80.368">
  <g id="logo01" transform="translate(-75.29)">
    <path id="パス_41" data-name="パス 41" d="M178.929,19.65c-10.888,3.59-12.674,9.553-14.752,7.814s.7-7.086-4.59-14.874c0,0-14.04,31.075-14.538,32.6,8.149-1.3,7.957-1.529,9.618-.66,2.644,1.384-.747,10.877,2.932,18.421L178.925,19.65Z" transform="translate(-46.23 -3.252)" fill="#edeff2"/>
    <path id="パス_42" data-name="パス 42" d="M166.683,37.061a21.117,21.117,0,1,0-28.767,8.062A21.057,21.057,0,0,0,166.683,37.061Z" transform="translate(-51.838 -5.656)" fill="#edeff2"/>
    <path id="パス_43" data-name="パス 43" d="M213.637,43.473a10.834,10.834,0,0,1,6.13-3.247A34.2,34.2,0,0,0,177.086,18c-.3.1-.6.193-.91.3h0a34.094,34.094,0,0,0-21.626,42.38c.094.313.2.617.3.921a34.213,34.213,0,0,0,64.7.056,10.88,10.88,0,0,1-5.908-18.185Z" transform="translate(-45.343 -4.342)" fill="#edeff2"/>
    <path id="パス_44" data-name="パス 44" d="M211.928,36.987a10.917,10.917,0,0,0-9.291-2.84c.034.09.059.18.09.274a33.88,33.88,0,0,1-.314,21.158,10.887,10.887,0,0,0,9.515-18.592Z" transform="translate(-28.211 2.657)" fill="#edeff2"/>
  </g>
</svg>
