<?xml version="1.0" encoding="UTF-8"?><svg id="_レイヤー_2" xmlns="http://www.w3.org/2000/svg" viewBox="0 0 225.57 32.35"><defs><style>.cls-1{fill:#004096;}.cls-2{fill:#fff;}</style></defs><g id="_レイヤー_1-2"><g id="_グループ_10"><rect id="_長方形_3" class="cls-1" x="16.33" y="16.33" width="16.03" height="16.03"/><rect id="_長方形_4" class="cls-1" y="0" width="16.03" height="16.03"/><circle id="_楕円形_3" class="cls-1" cx="16.18" cy="16.18" r="16.18"/><ellipse id="_楕円形_8" class="cls-2" cx="16.02" cy="16.3" rx="11.34" ry="12.09"/><ellipse id="_楕円形_6" cx="16.18" cy="15.92" rx="6.35" ry="6.65"/><path id="_パス_15" class="cls-2" d="m15.15,11.36c0,1.75-1.35,3.17-3.02,3.17s-3.02-1.42-3.02-3.17,1.35-3.17,3.02-3.17,3.02,1.42,3.02,3.17Z"/></g><path d="m38.46,6.86h8.4c6.23,0,10.49,3.84,10.49,9.61s-4.26,9.61-10.49,9.61h-8.4V6.86Zm8.24,16.2c4.28,0,7.06-2.61,7.06-6.59s-2.77-6.59-7.06-6.59h-4.67v13.18h4.67Z"/><path d="m61.8,6.86h3.57v19.22h-3.57V6.86Z"/><path d="m84.34,16.25h3.38v7.66c-2,1.62-4.81,2.44-7.52,2.44-5.96,0-10.35-4.15-10.35-9.89s4.39-9.89,10.41-9.89c3.21,0,5.9,1.07,7.72,3.13l-2.25,2.2c-1.51-1.51-3.24-2.2-5.3-2.2-4.09,0-6.97,2.77-6.97,6.76s2.88,6.76,6.95,6.76c1.37,0,2.72-.27,3.95-.99v-5.99Z"/><path d="m93.07,6.86h3.57v19.22h-3.57V6.86Z"/><path d="m106.39,9.88h-6.37v-3.02h16.31v3.02h-6.37v16.2h-3.57V9.88Z"/><path d="m131.19,21.63h-9.61l-1.89,4.45h-3.68l8.65-19.22h3.52l8.68,19.22h-3.73l-1.92-4.45Zm-1.18-2.8l-3.63-8.4-3.6,8.4h7.22Z"/><path d="m139.94,6.86h3.57v16.2h10.05v3.02h-13.62V6.86Z"/><path class="cls-1" d="m171.2,24.32v1.76h-13.59V6.86h13.18v1.76h-11.15v6.84h9.94v1.73h-9.94v7.14h11.56Z"/><path class="cls-1" d="m182.98,19.44v6.65h-2v-6.65l-7.69-12.58h2.17l6.59,10.79,6.59-10.79h2.03l-7.69,12.58Z"/><path class="cls-1" d="m207.66,24.32v1.76h-13.59V6.86h13.18v1.76h-11.15v6.84h9.94v1.73h-9.94v7.14h11.56Z"/><path class="cls-1" d="m211.26,23.75l.8-1.57c1.37,1.35,3.82,2.33,6.34,2.33,3.6,0,5.16-1.51,5.16-3.41,0-5.27-11.84-2.03-11.84-9.14,0-2.83,2.2-5.27,7.09-5.27,2.17,0,4.42.63,5.96,1.7l-.69,1.62c-1.65-1.07-3.57-1.59-5.27-1.59-3.52,0-5.08,1.57-5.08,3.49,0,5.27,11.84,2.09,11.84,9.09,0,2.83-2.25,5.25-7.17,5.25-2.88,0-5.71-1.02-7.14-2.5Z"/></g></svg>