<svg xmlns="http://www.w3.org/2000/svg" width="44.763" height="45.019" viewBox="0 0 44.763 45.019">
  <path id="cycle_24dp_1F1F1F_FILL0_wght400_GRAD0_opsz24" d="M20.808-840.864a20.667,20.667,0,0,1-8.646-7.418,19.668,19.668,0,0,1-3.325-11.2q0-1.33.128-2.609A17.505,17.505,0,0,1,9.4-864.6L7.046-863.22,5-866.75l9.771-5.627,5.627,9.72-3.581,2.046-2.763-4.809a14.956,14.956,0,0,0-.844,2.865,16.439,16.439,0,0,0-.281,3.069,15.927,15.927,0,0,0,2.711,9.03,16.221,16.221,0,0,0,7.213,6.011Zm15.654-24.812v-4.093h5.576A16.423,16.423,0,0,0,36.36-874.3a15.983,15.983,0,0,0-7.06-1.611,16.113,16.113,0,0,0-5.32.87,16.612,16.612,0,0,0-4.6,2.455l-2.046-3.581a21.961,21.961,0,0,1,5.576-2.814A19.787,19.787,0,0,1,29.3-880a20.176,20.176,0,0,1,7.725,1.509,20.359,20.359,0,0,1,6.6,4.374v-2.814h4.093v11.255Zm-1.33,30.695-9.771-5.627,5.627-9.72,3.53,2.046L31.6-843.268a15.958,15.958,0,0,0,10.053-5.474,15.9,15.9,0,0,0,4.016-10.794q0-.563-.026-1.049a6.949,6.949,0,0,0-.128-1h4.144q.051.512.077,1t.026,1.049a19.96,19.96,0,0,1-4.118,12.355,20.006,20.006,0,0,1-10.718,7.341l2.251,1.33Z" transform="translate(-5 880)" fill="#f02680"/>
</svg>
