<svg xmlns="http://www.w3.org/2000/svg" width="31.976" height="41.045" viewBox="0 0 31.976 41.045">
  <path id="chess_knight_24dp_1F1F1F_FILL0_wght400_GRAD0_opsz24" d="M140-838.955v-8.209a3.828,3.828,0,0,1,.616-2.129,4.512,4.512,0,0,1,1.642-1.514l10.056-5.079v-3.591l-7.132,3.54a5.759,5.759,0,0,1-1.283.462,5.912,5.912,0,0,1-1.334.154,5.872,5.872,0,0,1-3-.821,5.5,5.5,0,0,1-2.181-2.36,5.51,5.51,0,0,1-.616-2.95,5.923,5.923,0,0,1,.975-2.9l6.362-9.492L140-880h12.313a15.87,15.87,0,0,1,11.621,4.771,15.8,15.8,0,0,1,4.8,11.646v24.627Zm4.1-4.1h20.522v-20.522a11.875,11.875,0,0,0-3.591-8.722,11.875,11.875,0,0,0-8.722-3.591h-4.618l1.334,2.052-7.85,11.8a1.78,1.78,0,0,0-.282.847,1.648,1.648,0,0,0,.18.847,1.354,1.354,0,0,0,.693.744,2.217,2.217,0,0,0,.847.18,4.624,4.624,0,0,0,.77-.154l13.032-6.567v12.827L144.1-847.164ZM152.309-859.478Z" transform="translate(-136.75 880)" fill="#f02680"/>
</svg>
