<svg xmlns="http://www.w3.org/2000/svg" width="42" height="42" viewBox="0 0 42 42">
  <path id="network_node_24dp_1F1F1F_FILL0_wght400_GRAD0_opsz24" d="M87.35-838a7.082,7.082,0,0,1-5.2-2.153A7.081,7.081,0,0,1,80-845.35a7.081,7.081,0,0,1,2.153-5.2,7.082,7.082,0,0,1,5.2-2.153,7.146,7.146,0,0,1,1.838.236,7.8,7.8,0,0,1,1.68.656L98.9-859.84v-5.775a7.235,7.235,0,0,1-3.78-2.6,7.086,7.086,0,0,1-1.47-4.436,7.082,7.082,0,0,1,2.153-5.2A7.082,7.082,0,0,1,101-880a7.082,7.082,0,0,1,5.2,2.153,7.082,7.082,0,0,1,2.152,5.2,7.086,7.086,0,0,1-1.47,4.436,7.235,7.235,0,0,1-3.78,2.6v5.775l8.085,8.033a7.945,7.945,0,0,1,1.654-.656,6.85,6.85,0,0,1,1.811-.236,7.082,7.082,0,0,1,5.2,2.153,7.081,7.081,0,0,1,2.152,5.2,7.081,7.081,0,0,1-2.152,5.2,7.082,7.082,0,0,1-5.2,2.153,7.082,7.082,0,0,1-5.2-2.153,7.081,7.081,0,0,1-2.153-5.2,7.152,7.152,0,0,1,.236-1.838,7.8,7.8,0,0,1,.656-1.68L101-856.06l-7.192,7.192a7.8,7.8,0,0,1,.656,1.68,7.152,7.152,0,0,1,.236,1.838,7.081,7.081,0,0,1-2.153,5.2A7.082,7.082,0,0,1,87.35-838Zm27.3-4.2a3.037,3.037,0,0,0,2.231-.919,3.037,3.037,0,0,0,.919-2.231,3.038,3.038,0,0,0-.919-2.231,3.038,3.038,0,0,0-2.231-.919,3.038,3.038,0,0,0-2.231.919,3.038,3.038,0,0,0-.919,2.231,3.037,3.037,0,0,0,.919,2.231A3.037,3.037,0,0,0,114.65-842.2ZM101-869.5a3.037,3.037,0,0,0,2.231-.919,3.038,3.038,0,0,0,.919-2.231,3.038,3.038,0,0,0-.919-2.231A3.038,3.038,0,0,0,101-875.8a3.038,3.038,0,0,0-2.231.919,3.038,3.038,0,0,0-.919,2.231,3.038,3.038,0,0,0,.919,2.231A3.037,3.037,0,0,0,101-869.5ZM87.35-842.2a3.037,3.037,0,0,0,2.231-.919,3.037,3.037,0,0,0,.919-2.231,3.038,3.038,0,0,0-.919-2.231,3.038,3.038,0,0,0-2.231-.919,3.038,3.038,0,0,0-2.231.919,3.038,3.038,0,0,0-.919,2.231,3.037,3.037,0,0,0,.919,2.231A3.037,3.037,0,0,0,87.35-842.2Z" transform="translate(-80 880)" fill="#f02680"/>
</svg>
